# xmcd CD database file
#
# Track frame offsets:
#	150
#	23390
#	44090
#
# Disc length: 895 seconds
#
# Revision: 0
# Processed by: cddbd v1.5.2PL0 Copyright (c) Steve Scherf et al.
# Submitted via: CDex 1.70beta2
#
DISCID=1b037d03
DTITLE=the boom - 蒼い夕陽
DYEAR=1900
DGENRE=Country
TTITLE0=01蒼い夕陽
TTITLE1=02星のラブレターfeat.minmi.peterman
TTITLE2=03蒼い夕陽instrumental
EXTD=
EXTT0=
EXTT1=
EXTT2=
PLAYORDER=
